<svg width="31" height="31" viewBox="0 0 31 31" fill="none" xmlns="http://www.w3.org/2000/svg">
<g clip-path="url(#clip0_23_578)">
<path d="M28.0279 12.3431C29.0724 12.8791 30.1705 13.8375 30.1551 15.3131C30.1396 16.7886 29.0198 17.7238 27.9662 18.2378C26.875 18.7683 25.558 19.0152 24.4911 19.004L17.5709 18.9316L12.6229 28.5741C12.3846 29.0392 12.0214 29.4287 11.5741 29.6989C11.1268 29.9691 10.613 30.1094 10.0905 30.1039L7.49936 30.0768C7.36328 30.0753 7.22916 30.0442 7.10631 29.9857C6.98346 29.9272 6.87482 29.8426 6.78795 29.7378C6.70109 29.6331 6.63806 29.5106 6.60327 29.3791C6.56847 29.2475 6.56273 29.11 6.58645 28.976L8.41565 18.6689L4.19886 17.9216L1.70189 20.3669C1.5694 20.497 1.40128 20.5848 1.21883 20.6192C1.03638 20.6536 0.847823 20.633 0.677063 20.5601C0.506304 20.4873 0.361034 20.3653 0.259665 20.2098C0.158296 20.0542 0.105395 19.8721 0.107669 19.6864L0.205758 10.3119C0.207369 10.1263 0.264069 9.94527 0.368671 9.79188C0.473273 9.63848 0.621062 9.5196 0.793309 9.45031C0.965557 9.38101 1.1545 9.36442 1.33619 9.40263C1.51788 9.44085 1.68413 9.53215 1.81387 9.66497L4.2591 12.1638L8.49062 11.503L6.8775 1.15998C6.85659 1.02551 6.8652 0.888098 6.90275 0.757291C6.94029 0.626485 7.00586 0.50542 7.0949 0.402506C7.18394 0.299593 7.29432 0.217298 7.41837 0.161339C7.54242 0.105381 7.67716 0.0770997 7.81324 0.078461L10.4044 0.105573C10.9269 0.111058 11.4376 0.262028 11.8792 0.541549C12.3207 0.82107 12.6757 1.21809 12.9042 1.68806L17.6494 11.432L24.5696 11.5044C25.6346 11.5155 26.9499 11.7918 28.0279 12.3431ZM27.1704 14.0105C26.3852 13.6066 25.3581 13.3878 24.55 13.3793L17.0504 13.3008C16.8765 13.299 16.7064 13.2488 16.5594 13.1559C16.4123 13.0629 16.294 12.9309 16.2177 12.7746L11.2174 2.50671C11.1411 2.35038 11.0228 2.21836 10.8757 2.12542C10.7287 2.03248 10.5587 1.9823 10.3847 1.98047L8.89982 1.96493L10.4866 12.1408C10.5247 12.3861 10.464 12.6365 10.3178 12.8371C10.1716 13.0377 9.95175 13.1721 9.70657 13.2109L4.07207 14.0895C3.92421 14.1128 3.77291 14.1003 3.63085 14.0531C3.48878 14.006 3.36007 13.9255 3.25549 13.8184L2.05696 12.5964L2.00623 17.4449L3.2301 16.2445C3.3367 16.1399 3.46676 16.0623 3.60942 16.0181C3.75209 15.974 3.90325 15.9645 4.0503 15.9906L9.66519 16.9869C9.78652 17.0084 9.90242 17.0536 10.0063 17.1199C10.1101 17.1863 10.1999 17.2724 10.2704 17.3735C10.3409 17.4745 10.3908 17.5885 10.4173 17.7089C10.4437 17.8292 10.4461 17.9536 10.4245 18.0749L8.62517 28.2135L10.1101 28.229C10.284 28.2308 10.4551 28.1842 10.604 28.0944C10.753 28.0045 10.874 27.875 10.9536 27.7203L16.1677 17.5593C16.2472 17.4046 16.3683 17.2751 16.5172 17.1853C16.6662 17.0954 16.8372 17.0488 17.0112 17.0506L24.5108 17.1291C25.3207 17.1376 26.3484 16.9421 27.1438 16.5529C27.9731 16.149 28.276 15.6928 28.2802 15.2934C28.2844 14.8941 27.9929 14.4316 27.1704 14.0105Z" fill="black"/>
</g>
<defs>
<clipPath id="clip0_23_578">
<rect width="30" height="30" fill="white" transform="translate(30.312 0.313873) rotate(90.5995)"/>
</clipPath>
</defs>
</svg>
