<svg width="109" height="29" viewBox="0 0 109 29" fill="none" xmlns="http://www.w3.org/2000/svg">
<path d="M37.34 15.324C37.34 16.596 37.128 17.764 36.704 18.828C36.28 19.892 35.684 20.808 34.916 21.576C34.148 22.344 33.224 22.94 32.144 23.364C31.064 23.788 29.864 24 28.544 24H21.932V6.648H28.544C29.864 6.648 31.064 6.864 32.144 7.296C33.224 7.72 34.148 8.316 34.916 9.084C35.684 9.844 36.28 10.756 36.704 11.82C37.128 12.884 37.34 14.052 37.34 15.324ZM34.028 15.324C34.028 14.372 33.9 13.52 33.644 12.768C33.396 12.008 33.032 11.368 32.552 10.848C32.08 10.32 31.504 9.916 30.824 9.636C30.152 9.356 29.392 9.216 28.544 9.216H25.172V21.432H28.544C29.392 21.432 30.152 21.292 30.824 21.012C31.504 20.732 32.08 20.332 32.552 19.812C33.032 19.284 33.396 18.644 33.644 17.892C33.9 17.132 34.028 16.276 34.028 15.324ZM46.6106 17.28V24H43.3946V17.28L37.0706 6.648H39.9146C40.1946 6.648 40.4146 6.716 40.5746 6.852C40.7426 6.988 40.8826 7.16 40.9946 7.368L44.1626 13.164C44.3466 13.508 44.5066 13.832 44.6426 14.136C44.7866 14.44 44.9146 14.744 45.0266 15.048C45.1306 14.744 45.2506 14.44 45.3866 14.136C45.5226 13.832 45.6786 13.508 45.8546 13.164L49.0106 7.368C49.0986 7.192 49.2306 7.028 49.4066 6.876C49.5826 6.724 49.8066 6.648 50.0786 6.648H52.9346L46.6106 17.28ZM63.3283 9.804C63.2323 9.972 63.1283 10.096 63.0163 10.176C62.9123 10.248 62.7803 10.284 62.6203 10.284C62.4523 10.284 62.2683 10.224 62.0683 10.104C61.8763 9.976 61.6443 9.836 61.3723 9.684C61.1003 9.532 60.7803 9.396 60.4123 9.276C60.0523 9.148 59.6243 9.084 59.1283 9.084C58.6803 9.084 58.2883 9.14 57.9523 9.252C57.6163 9.356 57.3323 9.504 57.1003 9.696C56.8763 9.888 56.7083 10.12 56.5963 10.392C56.4843 10.656 56.4283 10.948 56.4283 11.268C56.4283 11.676 56.5403 12.016 56.7643 12.288C56.9963 12.56 57.3003 12.792 57.6763 12.984C58.0523 13.176 58.4803 13.348 58.9603 13.5C59.4403 13.652 59.9323 13.816 60.4363 13.992C60.9403 14.16 61.4323 14.36 61.9123 14.592C62.3923 14.816 62.8203 15.104 63.1963 15.456C63.5723 15.8 63.8723 16.224 64.0963 16.728C64.3283 17.232 64.4443 17.844 64.4443 18.564C64.4443 19.348 64.3083 20.084 64.0363 20.772C63.7723 21.452 63.3803 22.048 62.8603 22.56C62.3483 23.064 61.7203 23.464 60.9763 23.76C60.2323 24.048 59.3803 24.192 58.4203 24.192C57.8683 24.192 57.3243 24.136 56.7883 24.024C56.2523 23.92 55.7363 23.768 55.2402 23.568C54.7523 23.368 54.2923 23.128 53.8603 22.848C53.4283 22.568 53.0443 22.256 52.7083 21.912L53.6562 20.364C53.7363 20.252 53.8403 20.16 53.9683 20.088C54.0963 20.008 54.2323 19.968 54.3763 19.968C54.5763 19.968 54.7923 20.052 55.0243 20.22C55.2563 20.38 55.5323 20.56 55.8523 20.76C56.1723 20.96 56.5443 21.144 56.9683 21.312C57.4003 21.472 57.9163 21.552 58.5163 21.552C59.4363 21.552 60.1483 21.336 60.6523 20.904C61.1563 20.464 61.4083 19.836 61.4083 19.02C61.4083 18.564 61.2923 18.192 61.0603 17.904C60.8363 17.616 60.5363 17.376 60.1603 17.184C59.7843 16.984 59.3563 16.816 58.8763 16.68C58.3963 16.544 57.9083 16.396 57.4123 16.236C56.9163 16.076 56.4283 15.884 55.9483 15.66C55.4683 15.436 55.0403 15.144 54.6643 14.784C54.2883 14.424 53.9843 13.976 53.7523 13.44C53.5283 12.896 53.4163 12.228 53.4163 11.436C53.4163 10.804 53.5403 10.188 53.7883 9.588C54.0443 8.988 54.4123 8.456 54.8923 7.992C55.3723 7.528 55.9643 7.156 56.6683 6.876C57.3723 6.596 58.1803 6.456 59.0923 6.456C60.1163 6.456 61.0603 6.616 61.9243 6.936C62.7883 7.256 63.5243 7.704 64.1323 8.28L63.3283 9.804ZM76.5001 9.804C76.4041 9.972 76.3001 10.096 76.1881 10.176C76.0841 10.248 75.9521 10.284 75.7921 10.284C75.6241 10.284 75.4401 10.224 75.2401 10.104C75.0481 9.976 74.8161 9.836 74.5441 9.684C74.2721 9.532 73.9521 9.396 73.5841 9.276C73.2241 9.148 72.7961 9.084 72.3001 9.084C71.8521 9.084 71.4601 9.14 71.1241 9.252C70.7881 9.356 70.5041 9.504 70.2721 9.696C70.0481 9.888 69.8801 10.12 69.7681 10.392C69.6561 10.656 69.6001 10.948 69.6001 11.268C69.6001 11.676 69.7121 12.016 69.9361 12.288C70.1681 12.56 70.4721 12.792 70.8481 12.984C71.2241 13.176 71.6521 13.348 72.1321 13.5C72.6121 13.652 73.1041 13.816 73.6081 13.992C74.1121 14.16 74.6041 14.36 75.0841 14.592C75.5641 14.816 75.9921 15.104 76.3681 15.456C76.7441 15.8 77.0441 16.224 77.2681 16.728C77.5001 17.232 77.6161 17.844 77.6161 18.564C77.6161 19.348 77.4801 20.084 77.2081 20.772C76.9441 21.452 76.5521 22.048 76.0321 22.56C75.5201 23.064 74.8921 23.464 74.1481 23.76C73.4041 24.048 72.5521 24.192 71.5921 24.192C71.0401 24.192 70.4961 24.136 69.9601 24.024C69.4241 23.92 68.9081 23.768 68.4121 23.568C67.9241 23.368 67.4641 23.128 67.0321 22.848C66.6001 22.568 66.2161 22.256 65.8801 21.912L66.8281 20.364C66.9081 20.252 67.0121 20.16 67.1401 20.088C67.2681 20.008 67.4041 19.968 67.5481 19.968C67.7481 19.968 67.9641 20.052 68.1961 20.22C68.4281 20.38 68.7041 20.56 69.0241 20.76C69.3441 20.96 69.7161 21.144 70.1401 21.312C70.5721 21.472 71.0881 21.552 71.6881 21.552C72.6081 21.552 73.3201 21.336 73.8241 20.904C74.3281 20.464 74.5801 19.836 74.5801 19.02C74.5801 18.564 74.4641 18.192 74.2321 17.904C74.0081 17.616 73.7081 17.376 73.3321 17.184C72.9561 16.984 72.5281 16.816 72.0481 16.68C71.5681 16.544 71.0801 16.396 70.5841 16.236C70.0881 16.076 69.6001 15.884 69.1201 15.66C68.6401 15.436 68.2121 15.144 67.8361 14.784C67.4601 14.424 67.1561 13.976 66.9241 13.44C66.7001 12.896 66.5881 12.228 66.5881 11.436C66.5881 10.804 66.7121 10.188 66.9601 9.588C67.2161 8.988 67.5841 8.456 68.0641 7.992C68.5441 7.528 69.1361 7.156 69.8401 6.876C70.5441 6.596 71.3521 6.456 72.2641 6.456C73.2881 6.456 74.2321 6.616 75.0961 6.936C75.9601 7.256 76.6961 7.704 77.3041 8.28L76.5001 9.804ZM83.672 9.216V14.028H89.744V16.512H83.672V21.42H91.376V24H80.432V6.648H91.376V9.216H83.672ZM101.689 17.28V24H98.4727V17.28L92.1487 6.648H94.9927C95.2727 6.648 95.4927 6.716 95.6527 6.852C95.8207 6.988 95.9607 7.16 96.0727 7.368L99.2407 13.164C99.4247 13.508 99.5847 13.832 99.7207 14.136C99.8647 14.44 99.9927 14.744 100.105 15.048C100.209 14.744 100.329 14.44 100.465 14.136C100.601 13.832 100.757 13.508 100.933 13.164L104.089 7.368C104.177 7.192 104.309 7.028 104.485 6.876C104.661 6.724 104.885 6.648 105.157 6.648H108.013L101.689 17.28Z" fill="black"/>
<path d="M9 6C7.21997 6 5.47991 6.52784 3.99987 7.51677C2.51983 8.50571 1.36628 9.91131 0.685088 11.5558C0.00389955 13.2004 -0.17433 15.01 0.172937 16.7558C0.520204 18.5016 1.37737 20.1053 2.63604 21.364C3.89472 22.6226 5.49836 23.4798 7.24419 23.8271C8.99002 24.1743 10.7996 23.9961 12.4442 23.3149C14.0887 22.6337 15.4943 21.4802 16.4832 20.0001C17.4722 18.5201 18 16.78 18 15C18 12.6131 17.0518 10.3239 15.364 8.63604C13.6761 6.94821 11.387 6 9 6ZM16.6114 13.785C16.6114 13.785 16.5793 13.785 16.5664 13.785C15.7988 14.2292 14.9864 14.5912 14.1429 14.865C14.2036 12.4555 13.5602 10.0807 12.2914 8.03143C13.4248 8.56725 14.4105 9.37121 15.1633 10.3737C15.916 11.3763 16.4131 12.5471 16.6114 13.785ZM5.14286 15C5.14286 11.2586 6.55715 8.03786 8.35715 7.40786V15.6429C7.27492 15.6101 6.19844 15.4724 5.14286 15.2314C5.14286 15.1414 5.14286 15.0707 5.14286 15ZM8.35715 16.9286V22.6114C6.81429 22.065 5.54786 19.6221 5.22643 16.5621C6.25758 16.7738 7.305 16.8964 8.35715 16.9286ZM9.64286 22.6114V16.9286C10.695 16.8964 11.7424 16.7738 12.7736 16.5621C12.4521 19.6029 11.1857 22.0714 9.64286 22.5921V22.6114ZM9.64286 15.6429V7.40786C11.4429 8.05071 12.8571 11.265 12.8571 15C12.8571 15.0707 12.8571 15.1414 12.8571 15.2121C11.8022 15.4596 10.7257 15.6038 9.64286 15.6429ZM5.70858 8.03143C4.43979 10.0807 3.79637 12.4555 3.85715 14.865C3.01213 14.5978 2.19763 14.2422 1.42715 13.8043C1.42715 13.8043 1.42715 13.8043 1.38215 13.8043C1.57823 12.5623 2.07492 11.3871 2.82897 10.381C3.58302 9.37481 4.57158 8.56823 5.70858 8.03143ZM1.28572 15.18C2.12174 15.6101 2.99812 15.9568 3.90215 16.215C3.98845 18.2673 4.6089 20.2616 5.70215 22.0007C4.40428 21.3873 3.30332 20.4239 2.5231 19.219C1.74287 18.014 1.31435 16.6152 1.28572 15.18ZM12.2914 21.9686C13.3794 20.2389 13.9996 18.2563 14.0914 16.215C14.9977 15.9572 15.8762 15.6105 16.7143 15.18C16.6792 16.6104 16.2469 18.0028 15.4658 19.2017C14.6848 20.4005 13.5857 21.3585 12.2914 21.9686Z" fill="black"/>
</svg>
