<svg width="252" height="128" viewBox="0 0 252 128" fill="none" xmlns="http://www.w3.org/2000/svg">
<path d="M13.8 109.54V124H12.42C12.2067 124 12.0267 123.967 11.88 123.9C11.74 123.827 11.6033 123.707 11.47 123.54L3.92 113.9C3.96 114.34 3.98 114.747 3.98 115.12V124H1.61V109.54H3.02C3.13333 109.54 3.23 109.547 3.31 109.56C3.39667 109.567 3.47 109.587 3.53 109.62C3.59667 109.647 3.66 109.69 3.72 109.75C3.78 109.803 3.84667 109.877 3.92 109.97L11.5 119.65C11.48 119.417 11.4633 119.187 11.45 118.96C11.4367 118.733 11.43 118.523 11.43 118.33V109.54H13.8ZM30.8102 116.77C30.8102 117.83 30.6335 118.813 30.2802 119.72C29.9335 120.62 29.4402 121.4 28.8002 122.06C28.1602 122.72 27.3902 123.237 26.4902 123.61C25.5902 123.977 24.5902 124.16 23.4902 124.16C22.3968 124.16 21.4002 123.977 20.5002 123.61C19.6002 123.237 18.8268 122.72 18.1802 122.06C17.5402 121.4 17.0435 120.62 16.6902 119.72C16.3368 118.813 16.1602 117.83 16.1602 116.77C16.1602 115.71 16.3368 114.73 16.6902 113.83C17.0435 112.923 17.5402 112.14 18.1802 111.48C18.8268 110.82 19.6002 110.307 20.5002 109.94C21.4002 109.567 22.3968 109.38 23.4902 109.38C24.2235 109.38 24.9135 109.467 25.5602 109.64C26.2068 109.807 26.8002 110.047 27.3402 110.36C27.8802 110.667 28.3635 111.043 28.7902 111.49C29.2235 111.93 29.5902 112.423 29.8902 112.97C30.1902 113.517 30.4168 114.11 30.5702 114.75C30.7302 115.39 30.8102 116.063 30.8102 116.77ZM28.0602 116.77C28.0602 115.977 27.9535 115.267 27.7402 114.64C27.5268 114.007 27.2235 113.47 26.8302 113.03C26.4368 112.59 25.9568 112.253 25.3902 112.02C24.8302 111.787 24.1968 111.67 23.4902 111.67C22.7835 111.67 22.1468 111.787 21.5802 112.02C21.0202 112.253 20.5402 112.59 20.1402 113.03C19.7468 113.47 19.4435 114.007 19.2302 114.64C19.0168 115.267 18.9102 115.977 18.9102 116.77C18.9102 117.563 19.0168 118.277 19.2302 118.91C19.4435 119.537 19.7468 120.07 20.1402 120.51C20.5402 120.943 21.0202 121.277 21.5802 121.51C22.1468 121.743 22.7835 121.86 23.4902 121.86C24.1968 121.86 24.8302 121.743 25.3902 121.51C25.9568 121.277 26.4368 120.943 26.8302 120.51C27.2235 120.07 27.5268 119.537 27.7402 118.91C27.9535 118.277 28.0602 117.563 28.0602 116.77ZM47.5303 111.75H43.1703V124H40.4803V111.75H36.1203V109.54H47.5303V111.75ZM53.7925 116.42C54.2992 116.42 54.7392 116.357 55.1125 116.23C55.4925 116.103 55.8025 115.93 56.0425 115.71C56.2892 115.483 56.4725 115.217 56.5925 114.91C56.7125 114.603 56.7725 114.267 56.7725 113.9C56.7725 113.167 56.5292 112.603 56.0425 112.21C55.5625 111.817 54.8258 111.62 53.8325 111.62H52.1125V116.42H53.7925ZM60.7125 124H58.2825C57.8225 124 57.4892 123.82 57.2825 123.46L54.2425 118.83C54.1292 118.657 54.0025 118.533 53.8625 118.46C53.7292 118.387 53.5292 118.35 53.2625 118.35H52.1125V124H49.4225V109.54H53.8325C54.8125 109.54 55.6525 109.643 56.3525 109.85C57.0592 110.05 57.6358 110.333 58.0825 110.7C58.5358 111.067 58.8692 111.507 59.0825 112.02C59.2958 112.527 59.4025 113.087 59.4025 113.7C59.4025 114.187 59.3292 114.647 59.1825 115.08C59.0425 115.513 58.8358 115.907 58.5625 116.26C58.2958 116.613 57.9625 116.923 57.5625 117.19C57.1692 117.457 56.7192 117.667 56.2125 117.82C56.3858 117.92 56.5458 118.04 56.6925 118.18C56.8392 118.313 56.9725 118.473 57.0925 118.66L60.7125 124ZM69.9141 118.54L68.1541 113.73C68.0674 113.517 67.9774 113.263 67.8841 112.97C67.7907 112.677 67.6974 112.36 67.6041 112.02C67.5174 112.36 67.4274 112.68 67.3341 112.98C67.2407 113.273 67.1507 113.53 67.0641 113.75L65.3141 118.54H69.9141ZM74.6641 124H72.5841C72.3507 124 72.1607 123.943 72.0141 123.83C71.8674 123.71 71.7574 123.563 71.6841 123.39L70.6041 120.44H64.6141L63.5341 123.39C63.4807 123.543 63.3774 123.683 63.2241 123.81C63.0707 123.937 62.8807 124 62.6541 124H60.5541L66.2441 109.54H68.9841L74.6641 124ZM87.3984 109.54L81.5584 124H79.1284L73.2884 109.54H75.4484C75.6818 109.54 75.8718 109.597 76.0184 109.71C76.1651 109.823 76.2751 109.97 76.3484 110.15L79.7584 118.97C79.8718 119.257 79.9784 119.573 80.0784 119.92C80.1851 120.26 80.2851 120.617 80.3784 120.99C80.4584 120.617 80.5451 120.26 80.6384 119.92C80.7318 119.573 80.8351 119.257 80.9484 118.97L84.3384 110.15C84.3918 109.997 84.4951 109.857 84.6484 109.73C84.8084 109.603 85.0018 109.54 85.2284 109.54H87.3984ZM91.5952 111.68V115.69H96.6552V117.76H91.5952V121.85H98.0152V124H88.8952V109.54H98.0152V111.68H91.5952ZM108.869 121.78V124H100.399V109.54H103.089V121.78H108.869ZM117.748 111.68V115.69H122.808V117.76H117.748V121.85H124.168V124H115.048V109.54H124.168V111.68H117.748ZM138.301 124H135.621C135.435 124 135.285 123.953 135.171 123.86C135.065 123.767 134.978 123.66 134.911 123.54L131.561 117.99C131.508 118.157 131.445 118.3 131.371 118.42L128.161 123.54C128.081 123.653 127.988 123.76 127.881 123.86C127.781 123.953 127.648 124 127.481 124H124.971L129.771 116.56L125.161 109.54H127.841C128.028 109.54 128.161 109.567 128.241 109.62C128.328 109.667 128.408 109.747 128.481 109.86L131.771 115.16C131.838 114.993 131.918 114.827 132.011 114.66L135.031 109.91C135.105 109.783 135.185 109.69 135.271 109.63C135.358 109.57 135.468 109.54 135.601 109.54H138.171L133.521 116.45L138.301 124ZM144.669 116.81C145.163 116.81 145.593 116.75 145.959 116.63C146.326 116.503 146.629 116.327 146.869 116.1C147.116 115.867 147.299 115.587 147.419 115.26C147.539 114.927 147.599 114.557 147.599 114.15C147.599 113.763 147.539 113.413 147.419 113.1C147.299 112.787 147.119 112.52 146.879 112.3C146.639 112.08 146.336 111.913 145.969 111.8C145.603 111.68 145.169 111.62 144.669 111.62H142.659V116.81H144.669ZM144.669 109.54C145.636 109.54 146.473 109.653 147.179 109.88C147.886 110.107 148.469 110.423 148.929 110.83C149.389 111.237 149.729 111.723 149.949 112.29C150.176 112.857 150.289 113.477 150.289 114.15C150.289 114.85 150.173 115.493 149.939 116.08C149.706 116.66 149.356 117.16 148.889 117.58C148.423 118 147.836 118.327 147.129 118.56C146.429 118.793 145.609 118.91 144.669 118.91H142.659V124H139.969V109.54H144.669ZM155.052 111.68V115.69H160.112V117.76H155.052V121.85H161.472V124H152.352V109.54H161.472V111.68H155.052ZM176.046 109.54V124H174.666C174.453 124 174.273 123.967 174.126 123.9C173.986 123.827 173.849 123.707 173.716 123.54L166.166 113.9C166.206 114.34 166.226 114.747 166.226 115.12V124H163.856V109.54H165.266C165.379 109.54 165.476 109.547 165.556 109.56C165.643 109.567 165.716 109.587 165.776 109.62C165.843 109.647 165.906 109.69 165.966 109.75C166.026 109.803 166.093 109.877 166.166 109.97L173.746 119.65C173.726 119.417 173.709 119.187 173.696 118.96C173.683 118.733 173.676 118.523 173.676 118.33V109.54H176.046ZM186.966 112.17C186.886 112.31 186.8 112.413 186.706 112.48C186.62 112.54 186.51 112.57 186.376 112.57C186.236 112.57 186.083 112.52 185.916 112.42C185.756 112.313 185.563 112.197 185.336 112.07C185.11 111.943 184.843 111.83 184.536 111.73C184.236 111.623 183.88 111.57 183.466 111.57C183.093 111.57 182.766 111.617 182.486 111.71C182.206 111.797 181.97 111.92 181.776 112.08C181.59 112.24 181.45 112.433 181.356 112.66C181.263 112.88 181.216 113.123 181.216 113.39C181.216 113.73 181.31 114.013 181.496 114.24C181.69 114.467 181.943 114.66 182.256 114.82C182.57 114.98 182.926 115.123 183.326 115.25C183.726 115.377 184.136 115.513 184.556 115.66C184.976 115.8 185.386 115.967 185.786 116.16C186.186 116.347 186.543 116.587 186.856 116.88C187.17 117.167 187.42 117.52 187.606 117.94C187.8 118.36 187.896 118.87 187.896 119.47C187.896 120.123 187.783 120.737 187.556 121.31C187.336 121.877 187.01 122.373 186.576 122.8C186.15 123.22 185.626 123.553 185.006 123.8C184.386 124.04 183.676 124.16 182.876 124.16C182.416 124.16 181.963 124.113 181.516 124.02C181.07 123.933 180.64 123.807 180.226 123.64C179.82 123.473 179.436 123.273 179.076 123.04C178.716 122.807 178.396 122.547 178.116 122.26L178.906 120.97C178.973 120.877 179.06 120.8 179.166 120.74C179.273 120.673 179.386 120.64 179.506 120.64C179.673 120.64 179.853 120.71 180.046 120.85C180.24 120.983 180.47 121.133 180.736 121.3C181.003 121.467 181.313 121.62 181.666 121.76C182.026 121.893 182.456 121.96 182.956 121.96C183.723 121.96 184.316 121.78 184.736 121.42C185.156 121.053 185.366 120.53 185.366 119.85C185.366 119.47 185.27 119.16 185.076 118.92C184.89 118.68 184.64 118.48 184.326 118.32C184.013 118.153 183.656 118.013 183.256 117.9C182.856 117.787 182.45 117.663 182.036 117.53C181.623 117.397 181.216 117.237 180.816 117.05C180.416 116.863 180.06 116.62 179.746 116.32C179.433 116.02 179.18 115.647 178.986 115.2C178.8 114.747 178.706 114.19 178.706 113.53C178.706 113.003 178.81 112.49 179.016 111.99C179.23 111.49 179.536 111.047 179.936 110.66C180.336 110.273 180.83 109.963 181.416 109.73C182.003 109.497 182.676 109.38 183.436 109.38C184.29 109.38 185.076 109.513 185.796 109.78C186.516 110.047 187.13 110.42 187.636 110.9L186.966 112.17ZM192.943 111.68V115.69H198.003V117.76H192.943V121.85H199.363V124H190.243V109.54H199.363V111.68H192.943ZM209.447 112.17C209.367 112.31 209.28 112.413 209.187 112.48C209.1 112.54 208.99 112.57 208.857 112.57C208.717 112.57 208.563 112.52 208.397 112.42C208.237 112.313 208.043 112.197 207.817 112.07C207.59 111.943 207.323 111.83 207.017 111.73C206.717 111.623 206.36 111.57 205.947 111.57C205.573 111.57 205.247 111.617 204.967 111.71C204.687 111.797 204.45 111.92 204.257 112.08C204.07 112.24 203.93 112.433 203.837 112.66C203.743 112.88 203.697 113.123 203.697 113.39C203.697 113.73 203.79 114.013 203.977 114.24C204.17 114.467 204.423 114.66 204.737 114.82C205.05 114.98 205.407 115.123 205.807 115.25C206.207 115.377 206.617 115.513 207.037 115.66C207.457 115.8 207.867 115.967 208.267 116.16C208.667 116.347 209.023 116.587 209.337 116.88C209.65 117.167 209.9 117.52 210.087 117.94C210.28 118.36 210.377 118.87 210.377 119.47C210.377 120.123 210.263 120.737 210.037 121.31C209.817 121.877 209.49 122.373 209.057 122.8C208.63 123.22 208.107 123.553 207.487 123.8C206.867 124.04 206.157 124.16 205.357 124.16C204.897 124.16 204.443 124.113 203.997 124.02C203.55 123.933 203.12 123.807 202.707 123.64C202.3 123.473 201.917 123.273 201.557 123.04C201.197 122.807 200.877 122.547 200.597 122.26L201.387 120.97C201.453 120.877 201.54 120.8 201.647 120.74C201.753 120.673 201.867 120.64 201.987 120.64C202.153 120.64 202.333 120.71 202.527 120.85C202.72 120.983 202.95 121.133 203.217 121.3C203.483 121.467 203.793 121.62 204.147 121.76C204.507 121.893 204.937 121.96 205.437 121.96C206.203 121.96 206.797 121.78 207.217 121.42C207.637 121.053 207.847 120.53 207.847 119.85C207.847 119.47 207.75 119.16 207.557 118.92C207.37 118.68 207.12 118.48 206.807 118.32C206.493 118.153 206.137 118.013 205.737 117.9C205.337 117.787 204.93 117.663 204.517 117.53C204.103 117.397 203.697 117.237 203.297 117.05C202.897 116.863 202.54 116.62 202.227 116.32C201.913 116.02 201.66 115.647 201.467 115.2C201.28 114.747 201.187 114.19 201.187 113.53C201.187 113.003 201.29 112.49 201.497 111.99C201.71 111.49 202.017 111.047 202.417 110.66C202.817 110.273 203.31 109.963 203.897 109.73C204.483 109.497 205.157 109.38 205.917 109.38C206.77 109.38 207.557 109.513 208.277 109.78C208.997 110.047 209.61 110.42 210.117 110.9L209.447 112.17ZM222.996 118.4V124H220.316V118.4L215.046 109.54H217.416C217.649 109.54 217.832 109.597 217.966 109.71C218.106 109.823 218.222 109.967 218.316 110.14L220.956 114.97C221.109 115.257 221.242 115.527 221.356 115.78C221.476 116.033 221.582 116.287 221.676 116.54C221.762 116.287 221.862 116.033 221.976 115.78C222.089 115.527 222.219 115.257 222.366 114.97L224.996 110.14C225.069 109.993 225.179 109.857 225.326 109.73C225.472 109.603 225.659 109.54 225.886 109.54H228.266L222.996 118.4ZM232.455 111.68V115.69H237.515V117.76H232.455V121.85H238.875V124H229.755V109.54H238.875V111.68H232.455ZM251.358 111.75H246.998V124H244.308V111.75H239.948V109.54H251.358V111.75Z" fill="black"/>
<path d="M125.181 0C106.574 0 90.3619 10.65 85.6806 25.7812H82.2431C81.332 25.7822 80.432 25.9825 79.6063 26.3679C78.7807 26.7533 78.0493 27.3146 77.4634 28.0124C76.8775 28.7103 76.4512 29.5278 76.2146 30.4077C75.9779 31.2876 75.9364 32.2086 76.0931 33.1062L77.6806 42.2313C78.059 44.4067 79.193 46.3787 80.8829 47.7999C82.5728 49.2211 84.7101 50.0003 86.9181 50H88.5619C90.4369 53.2063 92.8619 56.1125 95.7181 58.6375L91.1619 74.1187C91.0249 74.5849 90.9984 75.0765 91.0847 75.5547C91.1709 76.0328 91.3674 76.4842 91.6587 76.8731C91.9499 77.262 92.3278 77.5777 92.7623 77.795C93.1968 78.0123 93.676 78.1253 94.1619 78.125H106.662C107.307 78.1251 107.936 77.9257 108.463 77.5542C108.99 77.1827 109.389 76.6573 109.606 76.05L112.618 67.6062C116.587 68.6875 120.806 69.275 125.187 69.275C129.606 69.275 133.862 68.6813 137.862 67.575L141.256 76.15C141.486 76.7326 141.887 77.2325 142.405 77.5847C142.923 77.9368 143.535 78.1251 144.162 78.125H156.662C157.15 78.1245 157.63 78.0099 158.066 77.7904C158.501 77.5708 158.879 77.2524 159.169 76.8606C159.46 76.4689 159.654 76.0146 159.738 75.5342C159.821 75.0537 159.791 74.5604 159.649 74.0937L154.893 58.4313C161.718 52.3 166.031 43.95 166.031 34.6375C166.031 33.7292 165.989 32.8313 165.906 31.9438C167.537 31.2563 169.081 30.2812 170.312 29.1687C172.281 31.0812 175.406 31.0812 175.406 26.5625C175.406 27.9563 172.281 27.9562 172.524 26.4C172.783 25.8967 172.972 25.3605 173.087 24.8062C173.234 24.0824 173.195 23.333 172.974 22.6282C172.754 21.9233 172.358 21.2857 171.824 20.775C171.262 20.1949 170.521 19.8195 169.72 19.7086C168.92 19.5976 168.105 19.7574 167.406 20.1625C166.764 20.5199 166.217 21.0249 165.81 21.6357C165.402 22.2465 165.146 22.9455 165.062 23.675C164.912 25.1938 165.574 26.675 167.062 27.7625C166.547 28.1214 166.006 28.4411 165.443 28.7188C162.106 12.0688 144.918 0 125.181 0ZM170.012 24.225C169.895 24.6981 169.687 25.144 169.399 25.5375L169.124 25.3812C168.212 24.8187 168.143 24.2875 168.174 23.9875C168.207 23.7638 168.29 23.5504 168.416 23.3632C168.543 23.1759 168.71 23.0197 168.906 22.9062C169.212 22.7375 169.406 22.775 169.612 22.9813C169.787 23.1315 169.917 23.3272 169.987 23.5467C170.058 23.7662 170.066 24.001 170.012 24.225ZM113.768 20.1625C113.368 20.2984 112.944 20.3515 112.522 20.3189C112.101 20.2862 111.69 20.1683 111.316 19.9724C110.941 19.7765 110.61 19.5065 110.343 19.179C110.076 18.8514 109.877 18.473 109.761 18.0667C109.644 17.6604 109.611 17.2345 109.663 16.815C109.716 16.3955 109.853 15.991 110.066 15.626C110.28 15.261 110.565 14.9431 110.905 14.6916C111.244 14.44 111.632 14.26 112.043 14.1625C116.315 12.9406 120.737 12.3242 125.181 12.3313C129.949 12.3313 134.537 13.0188 138.806 14.3C139.199 14.4178 139.565 14.6118 139.883 14.8711C140.201 15.1304 140.465 15.4498 140.66 15.811C140.855 16.1723 140.976 16.5684 141.018 16.9767C141.059 17.385 141.02 17.7975 140.903 18.1906C140.785 18.5838 140.591 18.9499 140.331 19.268C140.072 19.5862 139.753 19.8501 139.391 20.0448C139.03 20.2395 138.634 20.3612 138.226 20.4028C137.818 20.4445 137.405 20.4053 137.012 20.2875C133.172 19.1473 129.186 18.5725 125.181 18.5813C121.181 18.5813 117.337 19.1438 113.768 20.1688V20.1625ZM106.656 29.5188C106.656 30.762 106.162 31.9542 105.283 32.8333C104.404 33.7124 103.211 34.2063 101.968 34.2063C100.725 34.2063 99.5327 33.7124 98.6536 32.8333C97.7745 31.9542 97.2806 30.762 97.2806 29.5188C97.2806 28.2755 97.7745 27.0833 98.6536 26.2042C99.5327 25.3251 100.725 24.8313 101.968 24.8313C103.211 24.8313 104.404 25.3251 105.283 26.2042C106.162 27.0833 106.656 28.2755 106.656 29.5188Z" fill="black"/>
</svg>
