<svg width="30" height="60" viewBox="0 0 30 60" fill="none" xmlns="http://www.w3.org/2000/svg">
<path d="M15 0C12.0333 0 9.13319 0.879735 6.66645 2.52796C4.19972 4.17618 2.27713 6.51886 1.14181 9.25975C0.00649925 12.0006 -0.290551 15.0166 0.288228 17.9264C0.867006 20.8361 2.29562 23.5088 4.39341 25.6066C6.49119 27.7044 9.16394 29.133 12.0737 29.7118C14.9834 30.2906 17.9994 29.9935 20.7403 28.8582C23.4812 27.7229 25.8238 25.8003 27.4721 23.3336C29.1203 20.8668 30 17.9667 30 15C30 11.0218 28.4197 7.20644 25.6066 4.3934C22.7936 1.58035 18.9783 0 15 0ZM27.6857 12.975C27.6857 12.975 27.6322 12.975 27.6107 12.975C26.3313 13.7153 24.9774 14.3187 23.5714 14.775C23.6727 10.7592 22.6004 6.80112 20.4857 3.38571C22.3747 4.27874 24.0176 5.61869 25.2721 7.28956C26.5267 8.96044 27.3551 10.9119 27.6857 12.975ZM8.57144 15C8.57144 8.76429 10.9286 3.39643 13.9286 2.34643V16.0714C12.1249 16.0169 10.3307 15.7873 8.57144 15.3857C8.57144 15.2357 8.57144 15.1179 8.57144 15ZM13.9286 18.2143V27.6857C11.3572 26.775 9.24644 22.7036 8.71072 17.6036C10.4293 17.9563 12.175 18.1606 13.9286 18.2143ZM16.0714 27.6857V18.2143C17.825 18.1606 19.5707 17.9563 21.2893 17.6036C20.7536 22.6714 18.6429 26.7857 16.0714 27.6536V27.6857ZM16.0714 16.0714V2.34643C19.0714 3.41786 21.4286 8.775 21.4286 15C21.4286 15.1179 21.4286 15.2357 21.4286 15.3536C19.6704 15.7659 17.8762 16.0064 16.0714 16.0714ZM9.51429 3.38571C7.39965 6.80112 6.32728 10.7592 6.42858 14.775C5.02022 14.3296 3.66272 13.7371 2.37858 13.0071C2.37858 13.0071 2.37858 13.0071 2.30358 13.0071C2.63039 10.9372 3.4582 8.97852 4.71495 7.3016C5.9717 5.62469 7.61929 4.28038 9.51429 3.38571ZM2.14286 15.3C3.53624 16.0169 4.99687 16.5946 6.50358 17.025C6.64742 20.4456 7.6815 23.7694 9.50358 26.6679C7.34047 25.6455 5.50553 24.0399 4.20516 22.0316C2.90479 20.0233 2.19058 17.6921 2.14286 15.3ZM20.4857 26.6143C22.2989 23.7314 23.3327 20.4272 23.4857 17.025C24.9961 16.5953 26.4603 16.0175 27.8572 15.3C27.7986 17.684 27.0782 20.0047 25.7764 22.0028C24.4746 24.0009 22.6428 25.5975 20.4857 26.6143Z" fill="#FF0000"/>
<line x1="15" y1="29" x2="15" y2="60" stroke="#FF0000" stroke-width="2"/>
</svg>
